<svg width="181" height="80" viewBox="0 0 181 80" fill="none" xmlns="http://www.w3.org/2000/svg">
<rect x="1" y="1" width="52" height="29" stroke="white" stroke-width="2"/>
<rect x="37" y="50" width="52" height="29" stroke="white" stroke-width="2"/>
<rect x="91" y="1" width="52" height="29" stroke="white" stroke-width="2"/>
<rect x="128" y="50" width="52" height="29" stroke="white" stroke-width="2"/>
<path d="M52.8301 28.0147C52.2858 28.1085 51.9207 28.6258 52.0146 29.1701L53.544 38.0392C53.6379 38.5834 54.1551 38.9485 54.6994 38.8547C55.2436 38.7608 55.6088 38.2435 55.5149 37.6993L54.1554 29.8156L62.039 28.4561C62.5833 28.3623 62.9484 27.845 62.8546 27.3007C62.7607 26.7565 62.2434 26.3914 61.6992 26.4852L52.8301 28.0147ZM82.9882 48.9428L53.5767 28.1831L52.4234 29.8171L81.8349 50.5768L82.9882 48.9428Z" fill="white"/>
<path d="M90.7071 13.7071C91.0976 13.3166 91.0976 12.6834 90.7071 12.2929L84.3431 5.92893C83.9526 5.53841 83.3195 5.53841 82.9289 5.92893C82.5384 6.31946 82.5384 6.95262 82.9289 7.34315L88.5858 13L82.9289 18.6569C82.5384 19.0474 82.5384 19.6805 82.9289 20.0711C83.3195 20.4616 83.9526 20.4616 84.3431 20.0711L90.7071 13.7071ZM54 14L90 14V12L54 12V14Z" fill="white"/>
<path d="M126.907 51.6344C127.454 51.5571 127.834 51.0512 127.757 50.5043L126.498 41.5928C126.421 41.046 125.915 40.6653 125.368 40.7426C124.821 40.8198 124.44 41.3258 124.518 41.8726L125.637 49.794L117.715 50.9132C117.169 50.9904 116.788 51.4964 116.865 52.0432C116.942 52.5901 117.448 52.9708 117.995 52.8935L126.907 51.6344ZM97.3988 29.7991L126.166 51.4433L127.368 49.8452L98.6012 28.2009L97.3988 29.7991Z" fill="white"/>
</svg>
