<?xml version="1.0" encoding="UTF-8" standalone="no"?>
<!DOCTYPE svg PUBLIC "-//W3C//DTD SVG 1.1//EN" "http://www.w3.org/Graphics/SVG/1.1/DTD/svg11.dtd">
<svg width="100%" height="100%" viewBox="0 0 210 69" version="1.1" xmlns="http://www.w3.org/2000/svg" xmlns:xlink="http://www.w3.org/1999/xlink" xml:space="preserve" xmlns:serif="http://www.serif.com/" style="fill-rule:evenodd;clip-rule:evenodd;">
    <rect x="80" y="2" width="50" height="27" style="fill:none;stroke:black;stroke-width:2px;"/>
    <rect x="158" y="2" width="50" height="27" style="fill:none;stroke:black;stroke-width:2px;"/>
    <rect x="2" y="2" width="50" height="27" style="fill:none;stroke:black;stroke-width:2px;"/>
    <path d="M78.707,15.707C79.098,15.317 79.098,14.683 78.707,14.293L72.343,7.929C71.953,7.538 71.32,7.538 70.929,7.929C70.538,8.319 70.538,8.953 70.929,9.343L76.586,15L70.929,20.657C70.538,21.047 70.538,21.68 70.929,22.071C71.32,22.462 71.953,22.462 72.343,22.071L78.707,15.707ZM51,16L78,16L78,14L51,14L51,16Z" style="fill-rule:nonzero;"/>
    <rect x="158" y="46" width="27" height="21" style="fill:none;stroke:black;stroke-width:2px;"/>
    <rect x="80" y="49" width="33" height="18" style="fill:none;stroke:black;stroke-width:2px;"/>
    <g transform="matrix(1.07002,0.114381,-0.109325,1.02272,-0.182019,-8.87354)">
        <path d="M78.232,47.973C78.769,47.845 79.101,47.306 78.973,46.768L76.888,38.013C76.76,37.476 76.221,37.144 75.684,37.272C75.147,37.4 74.815,37.939 74.943,38.476L76.796,46.259L69.013,48.112C68.476,48.24 68.144,48.779 68.272,49.316C68.4,49.853 68.939,50.185 69.476,50.057L78.232,47.973ZM51.476,31.852L77.476,47.852L78.524,46.148L52.524,30.148L51.476,31.852Z" style="fill-rule:nonzero;"/>
    </g>
    <path d="M156.707,15.707C157.098,15.317 157.098,14.683 156.707,14.293L150.343,7.929C149.953,7.538 149.319,7.538 148.929,7.929C148.538,8.319 148.538,8.953 148.929,9.343L154.586,15L148.929,20.657C148.538,21.047 148.538,21.68 148.929,22.071C149.319,22.462 149.953,22.462 150.343,22.071L156.707,15.707ZM129,16L156,16L156,14L129,14L129,16Z" style="fill-rule:nonzero;"/>
    <path d="M171.293,44.707C171.683,45.098 172.317,45.098 172.707,44.707L179.071,38.343C179.462,37.953 179.462,37.32 179.071,36.929C178.681,36.538 178.047,36.538 177.657,36.929L172,42.586L166.343,36.929C165.953,36.538 165.319,36.538 164.929,36.929C164.538,37.32 164.538,37.953 164.929,38.343L171.293,44.707ZM171,28L171,44L173,44L173,28L171,28Z" style="fill-rule:nonzero;"/>
</svg>
