<svg width="210" height="31" viewBox="0 0 210 31" fill="none" xmlns="http://www.w3.org/2000/svg">
<rect x="79" y="1" width="52" height="29" stroke="white" stroke-width="2"/>
<rect x="157" y="1" width="52" height="29" stroke="white" stroke-width="2"/>
<rect x="1" y="1" width="52" height="29" stroke="white" stroke-width="2"/>
<path d="M78.7071 15.7071C79.0976 15.3166 79.0976 14.6834 78.7071 14.2929L72.3431 7.92893C71.9526 7.53841 71.3195 7.53841 70.9289 7.92893C70.5384 8.31946 70.5384 8.95262 70.9289 9.34315L76.5858 15L70.9289 20.6569C70.5384 21.0474 70.5384 21.6805 70.9289 22.0711C71.3195 22.4616 71.9526 22.4616 72.3431 22.0711L78.7071 15.7071ZM51 16H78V14H51V16Z" fill="white"/>
<path d="M156.707 15.7071C157.098 15.3166 157.098 14.6834 156.707 14.2929L150.343 7.92893C149.953 7.53841 149.319 7.53841 148.929 7.92893C148.538 8.31946 148.538 8.95262 148.929 9.34315L154.586 15L148.929 20.6569C148.538 21.0474 148.538 21.6805 148.929 22.0711C149.319 22.4616 149.953 22.4616 150.343 22.0711L156.707 15.7071ZM129 16H156V14H129V16Z" fill="white"/>
</svg>
